<svg width="24" height="24" viewBox="0 0 24 24" fill="none" xmlns="http://www.w3.org/2000/svg">
<path d="M6.6 12C8.25413 12 9.6 10.3176 9.6 8.24997C9.6 6.18231 8.25413 4.49997 6.6 4.49997C4.94588 4.49997 3.6 6.18231 3.6 8.24997C3.6 10.3176 4.94588 12 6.6 12ZM19.8 5.99997H11.4C11.0685 5.99997 10.8 6.33559 10.8 6.74997V13.5H2.4V3.74997C2.4 3.33559 2.1315 2.99997 1.8 2.99997H0.6C0.2685 2.99997 0 3.33559 0 3.74997V20.25C0 20.6643 0.2685 21 0.6 21H1.8C2.1315 21 2.4 20.6643 2.4 20.25V18H21.6V20.25C21.6 20.6643 21.8685 21 22.2 21H23.4C23.7315 21 24 20.6643 24 20.25V11.25C24 8.35028 22.1198 5.99997 19.8 5.99997Z" fill="black"/>
</svg>
