<svg width="40" height="40" viewBox="0 0 40 40" fill="none" xmlns="http://www.w3.org/2000/svg">
<path d="M20.0002 3.33331C10.8102 3.33331 3.3335 10.81 3.3335 20V26.905C3.3335 28.6116 4.8285 30 6.66683 30H8.3335C8.77552 30 9.19945 29.8244 9.51201 29.5118C9.82457 29.1993 10.0002 28.7753 10.0002 28.3333V19.7616C10.0002 19.3196 9.82457 18.8957 9.51201 18.5831C9.19945 18.2706 8.77552 18.095 8.3335 18.095H6.82016C7.74683 11.645 13.2968 6.66665 20.0002 6.66665C26.7035 6.66665 32.2535 11.645 33.1802 18.095H31.6668C31.2248 18.095 30.8009 18.2706 30.4883 18.5831C30.1758 18.8957 30.0002 19.3196 30.0002 19.7616V30C30.0002 31.8383 28.5052 33.3333 26.6668 33.3333H23.3335V31.6666H16.6668V36.6666H26.6668C30.3435 36.6666 33.3335 33.6766 33.3335 30C35.1718 30 36.6668 28.6116 36.6668 26.905V20C36.6668 10.81 29.1902 3.33331 20.0002 3.33331Z" fill="black"/>
</svg>
