<svg width="40" height="40" viewBox="0 0 40 40" fill="none" xmlns="http://www.w3.org/2000/svg">
<path d="M20.0002 3.3335C10.8102 3.3335 3.3335 10.8102 3.3335 20.0002V26.9052C3.3335 28.6118 4.8285 30.0002 6.66683 30.0002H8.3335C8.77552 30.0002 9.19945 29.8246 9.51201 29.512C9.82457 29.1994 10.0002 28.7755 10.0002 28.3335V19.7618C10.0002 19.3198 9.82457 18.8959 9.51201 18.5833C9.19945 18.2708 8.77552 18.0952 8.3335 18.0952H6.82016C7.74683 11.6452 13.2968 6.66683 20.0002 6.66683C26.7035 6.66683 32.2535 11.6452 33.1802 18.0952H31.6668C31.2248 18.0952 30.8009 18.2708 30.4883 18.5833C30.1758 18.8959 30.0002 19.3198 30.0002 19.7618V30.0002C30.0002 31.8385 28.5052 33.3335 26.6668 33.3335H23.3335V31.6668H16.6668V36.6668H26.6668C30.3435 36.6668 33.3335 33.6768 33.3335 30.0002C35.1718 30.0002 36.6668 28.6118 36.6668 26.9052V20.0002C36.6668 10.8102 29.1902 3.3335 20.0002 3.3335Z" fill="white"/>
</svg>
