<svg width="38" height="38" viewBox="0 0 38 38" fill="none" xmlns="http://www.w3.org/2000/svg">
<path d="M19 4.75C11.0833 4.75 4.75 11.0833 4.75 19C4.75 26.9167 11.0833 33.25 19 33.25C26.9167 33.25 33.25 26.9167 33.25 19C33.25 11.0833 26.9167 4.75 19 4.75ZM19 30.0833C12.825 30.0833 7.91667 25.175 7.91667 19C7.91667 12.825 12.825 7.91667 19 7.91667C25.175 7.91667 30.0833 12.825 30.0833 19C30.0833 25.175 25.175 30.0833 19 30.0833ZM32.4583 32.4583C35.9417 28.975 38 24.225 38 19C38 13.775 35.9417 9.025 32.4583 5.54167L30.7167 7.28333C33.725 10.2917 35.625 14.4083 35.625 19C35.625 23.5917 33.725 27.7083 30.7167 30.7167L32.4583 32.4583ZM7.28333 30.7167C4.275 27.7083 2.375 23.5917 2.375 19C2.375 14.4083 4.275 10.2917 7.28333 7.28333L5.54167 5.54167C2.05833 9.025 0 13.775 0 19C0 24.225 2.05833 28.975 5.54167 32.4583L7.28333 30.7167ZM15.0417 11.0833V26.9167H18.2083V20.5833H21.375C22.2149 20.5833 23.0203 20.2497 23.6142 19.6558C24.208 19.062 24.5417 18.2565 24.5417 17.4167V14.25C24.5417 13.4101 24.208 12.6047 23.6142 12.0108C23.0203 11.417 22.2149 11.0833 21.375 11.0833H15.0417ZM18.2083 14.25H21.375V17.4167H18.2083V14.25Z" fill="black"/>
</svg>
