<svg width="852" height="406" viewBox="0 0 852 406" fill="none" xmlns="http://www.w3.org/2000/svg">
<path d="M0.76123 82.3282C2.93891 84.022 7.08966 76.2592 8.30546 74.784C17.702 63.3829 28.6807 54.1562 40.5903 45.4946C63.2149 29.0404 90.3655 18.413 116.587 9.21574C126.654 5.68496 136.534 1.53155 147.43 1.44962C164.997 1.31754 175.88 6.89346 189.034 17.2038C200.531 26.215 197.076 42.5602 185.706 49.7105C174.491 56.7632 158.789 58.8301 146.21 54.3702C140.384 52.3047 134.599 43.0033 137.001 36.73C144.662 16.7277 166.581 13.16 185.484 9.65952C198.687 7.21454 212.979 8.0328 226.312 8.66102C242.599 9.42848 258.785 10.8391 274.905 13.2097C307.042 17.9357 337.976 23.4306 369.208 32.625C451.223 56.7695 528.684 98.2251 596.312 150.115C610.152 160.735 621.99 174.263 634.255 186.616C646.481 198.93 658.362 212.006 668.315 226.223C677.754 239.708 689.387 251.473 699.157 264.721C706.961 275.302 714.86 285.832 722.456 296.562C734.179 313.124 748.664 327.616 760.177 344.268C769.234 357.368 780.893 367.854 796.012 373.225C800.712 374.894 805.559 377.154 809.88 379.66C817.394 384.018 825.885 386.752 833.068 391.642C838.369 395.251 844.282 397.278 848.045 402.625C850.297 405.826 850.851 407.279 851.484 402.847" stroke="white" stroke-linecap="round" stroke-dasharray="8 8"/>
</svg>
