<svg width="43" height="43" viewBox="0 0 43 43" fill="none" xmlns="http://www.w3.org/2000/svg">
<path d="M27.2949 4.03125L26.959 4.91309L23.2637 14.7812H12.9336C11.7053 14.7812 10.54 15.1277 9.57422 15.7471L6.34082 12.4717L4.40918 14.4033L7.68457 17.6367C7.06519 18.6025 6.71875 19.7678 6.71875 20.9961C6.71875 21.6732 6.83423 22.3661 7.05469 23.0117L8.02051 25.8252L6.76074 30.5703L6.71875 30.7383V37.625H9.40625V31.0742L10.708 26.1611L10.792 25.7412L10.666 25.3633L9.57422 22.1299C9.45349 21.7677 9.40625 21.3793 9.40625 20.9961C9.40625 19.0225 10.96 17.4688 12.9336 17.4688H23.7256L28.2188 21.8779V18.0986L25.7832 15.7051L28.5547 8.27246L28.8906 8.77637L29.2686 9.40625H31.7881L35.9033 12.5137L34.7695 14.7812H29.5625V22.6758L28.3027 26.4551L28.2188 26.665V31.0742L29.5625 36.4492V37.625H32.25V36.1133L30.9062 30.7383V27.043L32.166 23.2637L32.25 23.0537V17.4688H36.4492L39.3467 11.6738L38.4229 11.002L32.7119 6.71875H30.7803L29.4785 4.66113L29.1006 4.03125H27.2949ZM13.7314 24.1875L12.0938 30.7383V37.625H14.7812V31.0742L15.8311 26.875H17.0908C17.5632 27.1899 19.2324 28.2188 21.5 28.2188H22.8438V31.0742L24.1875 36.4492V37.625H26.875V36.1133L25.5312 30.7383V25.5312H21.5C20.0723 25.5312 18.2246 24.3975 18.2246 24.3975L17.8887 24.1875H13.7314Z" fill="black"/>
</svg>
