<svg width="38" height="38" viewBox="0 0 38 38" fill="none" xmlns="http://www.w3.org/2000/svg">
<path d="M11.0833 10.7666C11.0833 9.62989 10.02 8.70831 8.70825 8.70831C7.39658 8.70831 6.33325 9.62989 6.33325 10.7666V27.2333C6.33325 28.3701 7.39658 29.2916 8.70825 29.2916C10.02 29.2916 11.0833 28.3701 11.0833 27.2333V10.7666Z" stroke="black" stroke-width="2" stroke-linejoin="round"/>
<path d="M31.6667 10.7666C31.6667 9.62989 30.6035 8.70831 29.2917 8.70831C27.98 8.70831 26.9167 9.62989 26.9167 10.7666V27.2333C26.9167 28.3701 27.98 29.2916 29.2917 29.2916C30.6035 29.2916 31.6667 28.3701 31.6667 27.2333V10.7666Z" stroke="black" stroke-width="2" stroke-linejoin="round"/>
<path d="M6.33325 14.7778C6.33325 13.6119 5.26992 12.6667 3.95825 12.6667C2.64658 12.6667 1.58325 13.6119 1.58325 14.7778V23.2222C1.58325 24.3882 2.64658 25.3334 3.95825 25.3334C5.26992 25.3334 6.33325 24.3882 6.33325 23.2222V14.7778Z" stroke="black" stroke-width="2" stroke-linejoin="round"/>
<path d="M36.4167 14.7778C36.4167 13.6119 35.3535 12.6667 34.0417 12.6667C32.73 12.6667 31.6667 13.6119 31.6667 14.7778V23.2222C31.6667 24.3882 32.73 25.3334 34.0417 25.3334C35.3535 25.3334 36.4167 24.3882 36.4167 23.2222V14.7778Z" stroke="black" stroke-width="2" stroke-linejoin="round"/>
<path d="M26.9166 21.375H11.0833V16.625H26.9166V21.375Z" stroke="black" stroke-width="2" stroke-linejoin="round"/>
</svg>
