<svg width="37" height="38" viewBox="0 0 37 38" fill="none" xmlns="http://www.w3.org/2000/svg">
<path d="M18.1776 4.02051C9.84628 4.02051 3.02979 10.8219 3.02979 19.1986C3.02979 26.7725 8.57387 33.0588 15.8145 34.1949V23.5914H11.967V19.1986H15.8145V15.8509C15.8145 12.0488 18.0715 9.95843 21.5404 9.95843C23.1915 9.95843 24.9183 10.2462 24.9183 10.2462V13.9877H23.0097C21.1314 13.9877 20.5406 15.1541 20.5406 16.3508V19.1986H24.7517L24.07 23.5914H20.5406V34.1949C24.1101 33.6311 27.3604 31.8099 29.7049 29.0599C32.0494 26.3099 33.3334 22.8123 33.3253 19.1986C33.3253 10.8219 26.5088 4.02051 18.1776 4.02051Z" fill="white"/>
</svg>
