<svg width="39" height="43" viewBox="0 0 39 43" fill="none" xmlns="http://www.w3.org/2000/svg">
<g clip-path="url(#clip0_1_254)">
<path d="M29.531 9.13525H2.89253C1.67192 9.13525 0.680176 10.1331 0.680176 11.3581V37.7435C0.680176 38.9685 1.67192 39.9663 2.89253 39.9663H29.531C30.7516 39.9663 31.7503 38.9685 31.7503 37.7435V11.3581C31.7503 10.1331 30.7516 9.13525 29.531 9.13525ZM10.0706 35.5619H5.46552V20.8483H10.0775V35.5619H10.0706ZM7.76804 18.8388C6.29082 18.8388 5.09795 17.6482 5.09795 16.1892C5.09795 14.7303 6.29082 13.5397 7.76804 13.5397C9.23832 13.5397 10.4381 14.7303 10.4381 16.1892C10.4381 17.6551 9.24525 18.8388 7.76804 18.8388ZM27.3325 35.5619H22.7274V28.4047C22.7274 26.698 22.6928 24.5026 20.3348 24.5026C17.9352 24.5026 17.5676 26.3607 17.5676 28.2808V35.5619H12.9626V20.8483H17.3803V22.8578H17.4428C18.06 21.7017 19.565 20.4836 21.8051 20.4836C26.4656 20.4836 27.3325 23.5323 27.3325 27.4963V35.5619Z" fill="white"/>
</g>
<defs>
<clipPath id="clip0_1_254">
<rect width="38.3198" height="42.25" fill="white" transform="translate(0.680176)"/>
</clipPath>
</defs>
</svg>
