<svg width="20" height="20" viewBox="0 0 20 20" fill="none" xmlns="http://www.w3.org/2000/svg">
<path d="M3.33329 5.83333C4.25375 5.83333 4.99996 5.08712 4.99996 4.16667C4.99996 3.24619 4.25375 2.5 3.33329 2.5C2.41282 2.5 1.66663 3.24619 1.66663 4.16667C1.66663 5.08712 2.41282 5.83333 3.33329 5.83333Z" stroke="black" stroke-width="2" stroke-linejoin="round"/>
<path d="M3.33333 10.8333C3.79357 10.8333 4.16667 10.4603 4.16667 10C4.16667 9.53976 3.79357 9.16667 3.33333 9.16667C2.8731 9.16667 2.5 9.53976 2.5 10C2.5 10.4603 2.8731 10.8333 3.33333 10.8333Z" stroke="black" stroke-width="2" stroke-linejoin="round"/>
<path d="M3.33333 16.6667C3.79357 16.6667 4.16667 16.2936 4.16667 15.8333C4.16667 15.3731 3.79357 15 3.33333 15C2.8731 15 2.5 15.3731 2.5 15.8333C2.5 16.2936 2.8731 16.6667 3.33333 16.6667Z" stroke="black" stroke-width="2" stroke-linejoin="round"/>
<path d="M8.33337 10H18.3334" stroke="black" stroke-width="2" stroke-linecap="round" stroke-linejoin="round"/>
<path d="M8.33337 15.8333H18.3334" stroke="black" stroke-width="2" stroke-linecap="round" stroke-linejoin="round"/>
<path d="M8.33337 4.16667H18.3334" stroke="black" stroke-width="2" stroke-linecap="round" stroke-linejoin="round"/>
</svg>
