<svg width="44" height="44" viewBox="0 0 44 44" fill="none" xmlns="http://www.w3.org/2000/svg">
<path d="M22.0002 3.66669C28.0685 3.66669 33.0002 8.54335 33.0002 14.575C33.0002 22.7517 22.0002 34.8334 22.0002 34.8334C22.0002 34.8334 11.0002 22.7517 11.0002 14.575C11.0002 8.54335 15.9318 3.66669 22.0002 3.66669ZM22.0002 11C21.0277 11 20.0951 11.3863 19.4074 12.074C18.7198 12.7616 18.3335 13.6942 18.3335 14.6667C18.3335 15.6391 18.7198 16.5718 19.4074 17.2594C20.0951 17.947 21.0277 18.3334 22.0002 18.3334C22.9726 18.3334 23.9053 17.947 24.5929 17.2594C25.2805 16.5718 25.6668 15.6391 25.6668 14.6667C25.6668 13.6942 25.2805 12.7616 24.5929 12.074C23.9053 11.3863 22.9726 11 22.0002 11ZM36.6668 34.8334C36.6668 38.885 30.1035 42.1667 22.0002 42.1667C13.8968 42.1667 7.3335 38.885 7.3335 34.8334C7.3335 32.4684 9.57016 30.36 13.0352 29.0217L14.2085 30.69C12.2285 31.515 11.0002 32.6517 11.0002 33.9167C11.0002 36.4467 15.9318 38.5 22.0002 38.5C28.0685 38.5 33.0002 36.4467 33.0002 33.9167C33.0002 32.6517 31.7718 31.515 29.7918 30.69L30.9652 29.0217C34.4302 30.36 36.6668 32.4684 36.6668 34.8334Z" fill="black"/>
</svg>
