<svg width="35" height="35" viewBox="0 0 35 35" fill="none" xmlns="http://www.w3.org/2000/svg">
<path d="M17.4998 9.47917C18.4668 9.47917 19.3941 9.86329 20.0778 10.547C20.7616 11.2307 21.1457 12.1581 21.1457 13.125C21.1457 13.6038 21.0514 14.0779 20.8681 14.5202C20.6849 14.9625 20.4164 15.3645 20.0778 15.703C19.7393 16.0415 19.3374 16.3101 18.895 16.4933C18.4527 16.6765 17.9786 16.7708 17.4998 16.7708C16.5329 16.7708 15.6056 16.3867 14.9218 15.703C14.2381 15.0193 13.854 14.0919 13.854 13.125C13.854 12.1581 14.2381 11.2307 14.9218 10.547C15.6056 9.86329 16.5329 9.47917 17.4998 9.47917ZM17.4998 2.91667C20.2073 2.91667 22.8038 3.99219 24.7182 5.90662C26.6327 7.82106 27.7082 10.4176 27.7082 13.125C27.7082 20.7813 17.4998 32.0833 17.4998 32.0833C17.4998 32.0833 7.2915 20.7813 7.2915 13.125C7.2915 10.4176 8.36702 7.82106 10.2815 5.90662C12.1959 3.99219 14.7924 2.91667 17.4998 2.91667ZM17.4998 5.83334C15.566 5.83334 13.7113 6.60157 12.3439 7.96902C10.9764 9.33647 10.2082 11.1911 10.2082 13.125C10.2082 14.5833 10.2082 17.5 17.4998 27.2854C24.7915 17.5 24.7915 14.5833 24.7915 13.125C24.7915 11.1911 24.0233 9.33647 22.6558 7.96902C21.2884 6.60157 19.4337 5.83334 17.4998 5.83334Z" fill="black"/>
</svg>
