<svg width="46" height="46" viewBox="0 0 46 46" fill="none" xmlns="http://www.w3.org/2000/svg">
<path d="M24.361 31.2225L24.0735 30.9925C23.9667 30.9199 23.8506 30.8619 23.7285 30.82L23.3835 30.6666C23.0727 30.6017 22.7505 30.6149 22.4461 30.7053C22.1417 30.7956 21.8644 30.9601 21.6393 31.1841C21.47 31.3704 21.3339 31.5844 21.2368 31.8166C21.0918 32.1659 21.0533 32.5502 21.1262 32.9212C21.199 33.2923 21.3801 33.6335 21.6464 33.9019C21.9128 34.1703 22.2526 34.354 22.6231 34.4297C22.9936 34.5054 23.3782 34.4698 23.7285 34.3275C23.9575 34.2163 24.1703 34.0745 24.361 33.9058C24.6269 33.6363 24.8071 33.294 24.8787 32.9222C24.9504 32.5504 24.9103 32.1657 24.7635 31.8166C24.6679 31.595 24.5314 31.3934 24.361 31.2225ZM30.6668 3.83331H15.3335C13.8085 3.83331 12.346 4.43911 11.2676 5.51745C10.1893 6.59578 9.5835 8.05832 9.5835 9.58331V36.4166C9.5835 37.9416 10.1893 39.4042 11.2676 40.4825C12.346 41.5608 13.8085 42.1666 15.3335 42.1666H30.6668C32.1918 42.1666 33.6544 41.5608 34.7327 40.4825C35.811 39.4042 36.4168 37.9416 36.4168 36.4166V9.58331C36.4168 8.05832 35.811 6.59578 34.7327 5.51745C33.6544 4.43911 32.1918 3.83331 30.6668 3.83331ZM32.5835 36.4166C32.5835 36.925 32.3816 37.4125 32.0221 37.7719C31.6627 38.1314 31.1752 38.3333 30.6668 38.3333H15.3335C14.8252 38.3333 14.3377 38.1314 13.9782 37.7719C13.6188 37.4125 13.4168 36.925 13.4168 36.4166V9.58331C13.4168 9.07498 13.6188 8.58747 13.9782 8.22803C14.3377 7.86858 14.8252 7.66665 15.3335 7.66665H30.6668C31.1752 7.66665 31.6627 7.86858 32.0221 8.22803C32.3816 8.58747 32.5835 9.07498 32.5835 9.58331V36.4166Z" fill="black"/>
</svg>
