<svg width="42" height="42" viewBox="0 0 42 42" fill="none" xmlns="http://www.w3.org/2000/svg">
<path d="M29.9952 7.88526C26.4654 7.98212 23.7285 8.94118 21.0641 9.86682C18.2146 10.8565 15.5246 11.7898 11.7997 11.8279C9.30987 11.8673 6.81604 11.4376 4.3656 10.5897L2.625 9.98731V32.4075L3.49915 32.7177C5.78158 33.5248 8.11535 33.9904 10.4385 34.1019C10.8073 34.119 11.1685 34.1276 11.5228 34.1276C15.4774 34.1276 18.5049 33.0785 21.4409 32.064C24.5358 30.993 27.455 29.9819 31.4385 30.1696C33.5044 30.268 35.5845 30.6858 37.6241 31.4077L39.375 32.0281V9.60022L38.5111 9.28492C36.247 8.4646 33.9083 7.99914 31.559 7.89808C31.0202 7.87412 30.4995 7.87142 29.9952 7.88526ZM30.067 10.4923C30.5119 10.4785 30.9695 10.4787 31.4436 10.4974C31.9344 10.5187 32.4256 10.5632 32.915 10.6205C33.2652 12.056 34.5502 13.125 36.0938 13.125C36.3182 13.125 36.5374 13.1004 36.75 13.0584V25.0042C36.5374 24.9622 36.3182 24.9375 36.0938 24.9375C34.4718 24.9375 33.1341 26.1163 32.8689 27.6625C32.433 27.6168 31.9968 27.5859 31.5615 27.5651C27.0793 27.3682 23.7742 28.4953 20.5796 29.603C17.4808 30.6767 14.5449 31.6916 10.5641 31.5026C10.0708 31.4788 9.57668 31.4315 9.0824 31.3718C8.72939 29.9404 7.44693 28.875 5.90625 28.875C5.68181 28.875 5.46263 28.8997 5.25 28.9417V16.9959C5.46263 17.0379 5.68181 17.0625 5.90625 17.0625C7.53963 17.0625 8.8819 15.8664 9.13367 14.3042C10.0326 14.3982 10.9324 14.4525 11.8279 14.4375C15.9819 14.3955 19.0025 13.3436 21.9254 12.3278C24.4991 11.432 26.9531 10.5887 30.067 10.4923ZM21 15.75C21 17.6387 20.2637 18.375 18.375 18.375V21C19.3932 21 20.2608 20.8016 21 20.4591V26.25H23.625V15.75H21ZM30.8438 17.0625C30.3216 17.0625 29.8208 17.2699 29.4516 17.6391C29.0824 18.0083 28.875 18.5091 28.875 19.0313C28.875 19.5534 29.0824 20.0542 29.4516 20.4234C29.8208 20.7926 30.3216 21 30.8438 21C31.3659 21 31.8667 20.7926 32.2359 20.4234C32.6051 20.0542 32.8125 19.5534 32.8125 19.0313C32.8125 18.5091 32.6051 18.0083 32.2359 17.6391C31.8667 17.2699 31.3659 17.0625 30.8438 17.0625ZM11.1562 21C10.6341 21 10.1333 21.2074 9.76413 21.5766C9.39492 21.9459 9.1875 22.4466 9.1875 22.9688C9.1875 23.4909 9.39492 23.9917 9.76413 24.3609C10.1333 24.7301 10.6341 24.9375 11.1562 24.9375C11.6784 24.9375 12.1792 24.7301 12.5484 24.3609C12.9176 23.9917 13.125 23.4909 13.125 22.9688C13.125 22.4466 12.9176 21.9459 12.5484 21.5766C12.1792 21.2074 11.6784 21 11.1562 21Z" fill="black"/>
</svg>
