<svg width="36" height="36" viewBox="0 0 36 36" fill="none" xmlns="http://www.w3.org/2000/svg">
<path d="M33 7.62C33.0012 6.70532 32.7309 5.81086 32.2234 5.04994C31.7158 4.28902 30.9938 3.69589 30.1488 3.34569C29.3039 2.99549 28.3739 2.90398 27.4769 3.08277C26.5799 3.26156 25.7561 3.7026 25.11 4.35L20.895 8.565L11.16 5.325C10.9008 5.24353 10.6243 5.23399 10.3601 5.2974C10.096 5.3608 9.85395 5.49477 9.65997 5.685L6.08997 9.225C5.92081 9.39611 5.7953 9.60541 5.72404 9.83523C5.65277 10.065 5.63783 10.3086 5.68048 10.5454C5.72314 10.7822 5.82213 11.0053 5.96911 11.1958C6.11609 11.3863 6.30674 11.5387 6.52497 11.64L14.295 15.165L10.395 19.065L7.82997 17.775C7.55303 17.6251 7.23594 17.5662 6.92364 17.6066C6.61134 17.647 6.31967 17.7846 6.08997 18L3.43497 20.715C3.15559 20.996 2.99878 21.3762 2.99878 21.7725C2.99878 22.1688 3.15559 22.549 3.43497 22.83L13.17 32.565C13.451 32.8444 13.8312 33.0012 14.2275 33.0012C14.6237 33.0012 15.0039 32.8444 15.285 32.565L18 29.91C18.2251 29.6872 18.3739 29.3989 18.4251 29.0863C18.4763 28.7737 18.4273 28.453 18.285 28.17L16.995 25.605L20.895 21.705L24.42 29.475C24.5213 29.6932 24.6737 29.8839 24.8642 30.0309C25.0547 30.1778 25.2777 30.2768 25.5145 30.3195C25.7513 30.3621 25.9949 30.3472 26.2247 30.2759C26.4546 30.2047 26.6639 30.0792 26.835 29.91L30.375 26.37C30.5652 26.176 30.6992 25.934 30.7626 25.6698C30.826 25.4056 30.8164 25.1292 30.735 24.87L27.495 15.135L31.65 10.89C32.0808 10.4618 32.4221 9.95219 32.6538 9.39076C32.8856 8.82934 33.0033 8.22738 33 7.62ZM29.52 8.77499L24.66 13.635C24.4697 13.829 24.3358 14.071 24.2724 14.3352C24.209 14.5994 24.2185 14.8758 24.3 15.135L27.54 24.855L26.19 26.205L22.665 18.45C22.5649 18.2297 22.4131 18.037 22.2224 17.8881C22.0317 17.7392 21.8079 17.6387 21.57 17.595C21.3301 17.5512 21.0831 17.5666 20.8505 17.6398C20.6179 17.7129 20.4066 17.8417 20.235 18.015L14.055 24.255C13.8331 24.4766 13.6863 24.7623 13.6352 25.0717C13.584 25.3811 13.6312 25.6988 13.77 25.98L15 28.5L14.16 29.34L6.61497 21.78L7.49997 21L10.065 22.29C10.3462 22.4288 10.6639 22.4759 10.9733 22.4248C11.2827 22.3737 11.5683 22.2269 11.79 22.005L18 15.765C18.1723 15.594 18.3006 15.3837 18.3738 15.1522C18.4469 14.9207 18.4628 14.6749 18.42 14.4359C18.3772 14.1969 18.2771 13.9718 18.1281 13.7801C17.9792 13.5883 17.7859 13.4356 17.565 13.335L9.74997 9.81L11.1 8.46L20.82 11.7C21.0792 11.7815 21.3556 11.791 21.6198 11.7276C21.884 11.6642 22.126 11.5302 22.32 11.34L27.18 6.48C27.3294 6.32715 27.5079 6.2057 27.705 6.12279C27.9021 6.03988 28.1137 5.99717 28.3275 5.99717C28.5413 5.99717 28.7529 6.03988 28.9499 6.12279C29.147 6.2057 29.3255 6.32715 29.475 6.48C29.6314 6.62496 29.7552 6.80163 29.8379 6.99821C29.9207 7.1948 29.9606 7.40677 29.955 7.62C29.9631 7.83179 29.9288 8.04307 29.8541 8.24142C29.7794 8.43977 29.6658 8.62119 29.52 8.77499Z" fill="black"/>
</svg>
