<svg width="46" height="46" viewBox="0 0 46 46" fill="none" xmlns="http://www.w3.org/2000/svg">
<path d="M23.0002 30.6667C21.4752 30.6667 20.0126 30.0609 18.9343 28.9825C17.856 27.9042 17.2502 26.4417 17.2502 24.9167C17.2502 22.77 18.4193 20.8917 20.1252 19.9142L38.736 9.1425L28.1368 27.5042C27.1785 29.3825 25.2427 30.6667 23.0002 30.6667ZM23.0002 5.75C26.4693 5.75 29.7085 6.70833 32.526 8.28L28.501 10.5992C26.8335 9.9475 24.9168 9.58333 23.0002 9.58333C18.9335 9.58333 15.0334 11.1988 12.1579 14.0744C9.2823 16.9499 7.66683 20.85 7.66683 24.9167C7.66683 29.1525 9.37266 32.9858 12.1518 35.7458H12.171C12.9185 36.4933 12.9185 37.7008 12.171 38.4483C11.4235 39.1958 10.1968 39.1958 9.44933 38.4675C5.98016 34.9983 3.8335 30.2067 3.8335 24.9167C3.8335 19.8334 5.85284 14.9582 9.44728 11.3638C13.0417 7.76934 17.9168 5.75 23.0002 5.75ZM42.1668 24.9167C42.1668 30.2067 40.0202 34.9983 36.551 38.4675C35.8035 39.1958 34.596 39.1958 33.8485 38.4483C33.101 37.7008 33.101 36.4933 33.8485 35.7458C36.6277 32.9667 38.3335 29.1525 38.3335 24.9167C38.3335 23 37.9693 21.0833 37.2985 19.3583L39.6177 15.3333C41.2085 18.2083 42.1668 21.4283 42.1668 24.9167Z" fill="#17202A"/>
</svg>
