<svg width="38" height="38" viewBox="0 0 38 38" fill="none" xmlns="http://www.w3.org/2000/svg">
<path d="M34.8532 10.0012C33.6868 10.5314 32.4296 10.8798 31.1268 11.0464C32.4598 10.2436 33.4899 8.97119 33.9746 7.44126C32.7174 8.19865 31.3238 8.72882 29.8544 9.03178C28.6578 7.72907 26.9764 6.97168 25.0677 6.97168C21.508 6.97168 18.5996 9.88005 18.5996 13.4701C18.5996 13.9851 18.6602 14.485 18.7663 14.9546C13.3737 14.6819 8.57182 12.0916 5.37564 8.16835C4.81517 9.12266 4.49707 10.2436 4.49707 11.4251C4.49707 13.6821 5.63315 15.6816 7.39029 16.8177C6.3148 16.8177 5.31505 16.5148 4.43648 16.0603C4.43648 16.0603 4.43648 16.0603 4.43648 16.1058C4.43648 19.2565 6.67835 21.8922 9.64731 22.483C9.10199 22.6345 8.52637 22.7102 7.93561 22.7102C7.52662 22.7102 7.11763 22.6648 6.72379 22.589C7.54177 25.149 9.91997 27.0576 12.7829 27.1031C10.5713 28.8602 7.76898 29.8903 4.70914 29.8903C4.19411 29.8903 3.67909 29.86 3.16406 29.7994C6.04214 31.6474 9.46553 32.7229 13.1313 32.7229C25.0677 32.7229 31.6267 22.8162 31.6267 14.2275C31.6267 13.9397 31.6267 13.667 31.6116 13.3792C32.884 12.4703 33.9746 11.3191 34.8532 10.0012Z" fill="white"/>
</svg>
