<svg width="36" height="36" viewBox="0 0 36 36" fill="none" xmlns="http://www.w3.org/2000/svg">
<path d="M28.5 3H7.5C6.67157 3 6 3.67157 6 4.5V31.5C6 32.3284 6.67157 33 7.5 33H28.5C29.3284 33 30 32.3284 30 31.5V4.5C30 3.67157 29.3284 3 28.5 3Z" stroke="black" stroke-width="2"/>
<path d="M6 11.625H30" stroke="black" stroke-width="2" stroke-linecap="round" stroke-linejoin="round"/>
<path d="M21 9C21.8284 9 22.5 8.32843 22.5 7.5C22.5 6.67157 21.8284 6 21 6C20.1716 6 19.5 6.67157 19.5 7.5C19.5 8.32843 20.1716 9 21 9Z" fill="black"/>
<path d="M25.5 9C26.3284 9 27 8.32843 27 7.5C27 6.67157 26.3284 6 25.5 6C24.6716 6 24 6.67157 24 7.5C24 8.32843 24.6716 9 25.5 9Z" fill="black"/>
<path d="M18 27.75C20.8995 27.75 23.25 25.3995 23.25 22.5C23.25 19.6005 20.8995 17.25 18 17.25C15.1005 17.25 12.75 19.6005 12.75 22.5C12.75 25.3995 15.1005 27.75 18 27.75Z" stroke="black" stroke-width="2"/>
</svg>
